<svg width="32" height="30" viewBox="0 0 32 30" fill="none" xmlns="http://www.w3.org/2000/svg">
<path d="M27.5522 15.3949C27.4612 18.6967 26.3237 21.4331 24.1399 23.6042C21.9561 25.7752 19.2035 26.9061 15.8823 26.9965C12.5611 26.9061 9.80857 25.7752 7.62474 23.6042C5.44092 21.4331 4.30352 18.6967 4.21252 15.3949C4.30352 12.0931 5.44092 9.35668 7.62474 7.18562C9.80857 5.01457 12.5611 3.88382 15.8823 3.79335C16.9742 3.79335 18.0434 3.95165 19.0898 4.26826L21.3419 1.96153C19.6585 1.28308 17.8387 0.943848 15.8823 0.943848C11.7422 1.03431 8.30719 2.43645 5.57741 5.15026C2.84763 7.86408 1.43725 11.279 1.34625 15.3949C1.43725 19.5109 2.84763 22.9257 5.57741 25.6396C8.30719 28.3533 11.7422 29.7556 15.8823 29.8459C20.0225 29.7556 23.4574 28.3533 26.1873 25.6396C28.917 22.9257 30.3275 19.5109 30.4183 15.3949H27.5522ZM9.94506 12.6133L7.89773 14.6486L14.4492 21.1617L28.9853 6.71071L26.9379 4.67535L14.4492 17.091L9.94506 12.6133Z" fill="white"/>
</svg>
