<svg width="20" height="19" viewBox="0 0 20 19" fill="none" xmlns="http://www.w3.org/2000/svg">
<path opacity="0.2" d="M10 17.0977C7.90885 17.0404 6.17578 16.3242 4.80078 14.9492C3.42578 13.5742 2.70964 11.8411 2.65234 9.75C2.70964 7.65885 3.42578 5.92578 4.80078 4.55078C6.17578 3.17578 7.90885 2.45964 10 2.40234C12.0911 2.45964 13.8242 3.17578 15.1992 4.55078C16.5742 5.92578 17.2904 7.65885 17.3477 9.75C17.2904 11.8411 16.5742 13.5742 15.1992 14.9492C13.8242 16.3242 12.0911 17.0404 10 17.0977ZM10 0.597656C7.39323 0.654948 5.23047 1.54297 3.51172 3.26172C1.79297 4.98047 0.904948 7.14323 0.847656 9.75C0.904948 12.3568 1.79297 14.5195 3.51172 16.2383C5.23047 17.957 7.39323 18.8451 10 18.9023C12.6068 18.8451 14.7695 17.957 16.4883 16.2383C18.207 14.5195 19.0951 12.3568 19.1523 9.75C19.0951 7.14323 18.207 4.98047 16.4883 3.26172C14.7695 1.54297 12.6068 0.654948 10 0.597656Z" fill="black"/>
</svg>
