<svg width="16" height="16" viewBox="0 0 16 16" fill="none" xmlns="http://www.w3.org/2000/svg">
<path fill-rule="evenodd" clip-rule="evenodd" d="M0.330511 7.07856C0.435013 6.97379 0.559158 6.89067 0.695835 6.83395C0.832512 6.77724 0.979035 6.74805 1.12701 6.74805C1.27499 6.74805 1.42151 6.77724 1.55819 6.83395C1.69486 6.89067 1.81901 6.97379 1.92351 7.07856L7.87701 13.0343L13.8305 7.07856C14.0418 6.86732 14.3283 6.74864 14.627 6.74864C14.9258 6.74864 15.2123 6.86732 15.4235 7.07856C15.6348 7.28981 15.7534 7.57632 15.7534 7.87506C15.7534 8.17381 15.6348 8.46032 15.4235 8.67156L8.67351 15.4216C8.56901 15.5263 8.44487 15.6094 8.30819 15.6662C8.17151 15.7229 8.02499 15.7521 7.87701 15.7521C7.72904 15.7521 7.58251 15.7229 7.44584 15.6662C7.30916 15.6094 7.18502 15.5263 7.08051 15.4216L0.33051 8.67156C0.225743 8.56705 0.142621 8.44291 0.0859067 8.30623C0.0291922 8.16956 -1.61958e-07 8.02303 -1.43161e-07 7.87506C-1.24364e-07 7.72708 0.0291923 7.58056 0.0859068 7.44388C0.142621 7.3072 0.225743 7.18306 0.330511 7.07856Z" fill="black"/>
<path fill-rule="evenodd" clip-rule="evenodd" d="M7.87708 2.70746e-07C8.17544 3.42553e-07 8.46159 0.118527 8.67257 0.329506C8.88355 0.540484 9.00208 0.826632 9.00208 1.125L9.00207 12.375C9.00207 12.6734 8.88355 12.9595 8.67257 13.1705C8.46159 13.3815 8.17544 13.5 7.87707 13.5C7.5787 13.5 7.29256 13.3815 7.08158 13.1705C6.8706 12.9595 6.75207 12.6734 6.75207 12.375L6.75208 1.125C6.75208 0.826631 6.8706 0.540484 7.08158 0.329505C7.29256 0.118527 7.57871 1.9894e-07 7.87708 2.70746e-07Z" fill="black"/>
</svg>
