<svg width="18" height="13" viewBox="0 0 18 13" fill="none" xmlns="http://www.w3.org/2000/svg">
<path d="M15.6428 12.0557H2.3505C1.90984 12.0557 1.48722 11.908 1.17562 11.6451C0.864019 11.3822 0.688965 11.0256 0.688965 10.6538V2.18127C0.707601 1.82013 0.890849 1.47902 1.20045 1.22916C1.51005 0.979293 1.92208 0.83999 2.3505 0.840333H15.6428C16.0835 0.840333 16.5061 0.988035 16.8177 1.25095C17.1293 1.51386 17.3043 1.87044 17.3043 2.24226V10.6538C17.3043 11.0256 17.1293 11.3822 16.8177 11.6451C16.5061 11.908 16.0835 12.0557 15.6428 12.0557ZM2.3505 3.55165V10.6538H15.6428V3.55165L8.99666 7.28918L2.3505 3.55165ZM3.01512 2.24226L8.99666 5.60687L14.9782 2.24226H3.01512Z" fill="white"/>
</svg>
