<svg width="18" height="18" viewBox="0 0 18 18" fill="none" xmlns="http://www.w3.org/2000/svg">
<path d="M8.16671 15.4999C9.79377 15.4996 11.3739 14.9549 12.6556 13.9526L16.6853 17.9823L17.9815 16.6861L13.9518 12.6564C14.9546 11.3746 15.4997 9.79407 15.5 8.16659C15.5 4.12317 12.2101 0.833252 8.16671 0.833252C4.12329 0.833252 0.833374 4.12317 0.833374 8.16659C0.833374 12.21 4.12329 15.4999 8.16671 15.4999ZM8.16671 2.66659C11.2 2.66659 13.6667 5.13334 13.6667 8.16659C13.6667 11.1998 11.2 13.6666 8.16671 13.6666C5.13346 13.6666 2.66671 11.1998 2.66671 8.16659C2.66671 5.13334 5.13346 2.66659 8.16671 2.66659Z" fill="white"/>
</svg>
