<svg width="30" height="30" viewBox="0 0 30 30" fill="none" xmlns="http://www.w3.org/2000/svg">
<path d="M26.6699 15.3948C26.5789 18.6965 25.4414 21.433 23.2576 23.6041C21.0738 25.7751 18.3212 26.906 15.0001 26.9964C11.6788 26.906 8.9263 25.7751 6.74248 23.6041C4.55866 21.433 3.42126 18.6965 3.33025 15.3948C3.42126 12.093 4.55866 9.35655 6.74248 7.1855C8.9263 5.01445 11.6788 3.8837 15.0001 3.79323C16.092 3.79323 17.1612 3.95153 18.2075 4.26814L20.4596 1.96141C18.7763 1.28295 16.9565 0.943726 15.0001 0.943726C10.8599 1.03419 7.42493 2.43633 4.69515 5.15014C1.96537 7.86396 0.554982 11.2788 0.463989 15.3948C0.554982 19.5108 1.96537 22.9256 4.69515 25.6395C7.42493 28.3532 10.8599 29.7555 15.0001 29.8458C19.1403 29.7555 22.5752 28.3532 25.305 25.6395C28.0347 22.9256 29.4452 19.5108 29.5361 15.3948H26.6699ZM9.0628 12.6131L7.01547 14.6485L13.5669 21.1616L28.103 6.71058L26.0556 4.67523L13.5669 17.0909L9.0628 12.6131Z" fill="#FB5353"/>
</svg>
