<svg width="21" height="20" viewBox="0 0 21 20" fill="none" xmlns="http://www.w3.org/2000/svg">
<path d="M10.5031 0C4.97854 0 0.503052 4.47613 0.503052 10C0.503052 15.5239 4.97918 20 10.5031 20C16.0276 20 20.5031 15.5239 20.5031 10C20.5031 4.47613 16.0269 0 10.5031 0ZM15.4147 6.85097L13.7734 14.5852C13.6521 15.1335 13.3256 15.2665 12.8701 15.0084L10.3701 13.1658L9.16434 14.3271C9.03144 14.46 8.91854 14.5729 8.66047 14.5729L8.83789 12.0284L13.4708 7.84258C13.6727 7.66516 13.4263 7.56452 13.1598 7.74194L7.43402 11.3465L4.96628 10.5761C4.43015 10.4071 4.41789 10.04 5.07918 9.78193L14.7205 6.06387C15.1682 5.90258 15.5592 6.1729 15.414 6.85032L15.4147 6.85097Z" fill="black"/>
</svg>
