<svg width="19" height="18" viewBox="0 0 19 18" fill="none" xmlns="http://www.w3.org/2000/svg">
<path d="M12.2677 0H6.74432C1.70391 0 0.509033 1.19528 0.509033 6.23737V11.7626C0.509033 16.8047 1.70391 18 6.74432 18H12.2677C17.3081 18 18.503 16.8047 18.503 11.7626V6.23737C18.503 1.19528 17.2963 0 12.2677 0ZM15.0353 12.8403H13.7291C13.2343 12.8403 13.0819 12.4477 12.1918 11.5455C11.4187 10.7957 11.0762 10.6962 10.8856 10.6962C10.6163 10.6962 10.5398 10.7721 10.5398 11.1417V12.3223C10.5398 12.639 10.4403 12.8291 9.60246 12.8291C8.21697 12.8291 6.67965 11.991 5.60174 10.4295C3.97614 8.14137 3.53137 6.42749 3.53137 6.07312C3.53137 5.88244 3.60728 5.70413 3.97333 5.70413H5.28235C5.61354 5.70413 5.7395 5.85657 5.86826 6.21093C6.51546 8.08006 7.59338 9.71745 8.03816 9.71745C8.20235 9.71745 8.27826 9.64151 8.27826 9.22246V7.29202C8.22821 6.40161 7.75982 6.32511 7.75982 6.009C7.75982 5.85657 7.88578 5.70413 8.08764 5.70413H10.1462C10.4245 5.70413 10.5269 5.85657 10.5269 6.18449V8.78879C10.5269 9.07003 10.6528 9.16959 10.7287 9.16959C10.8929 9.16959 11.0335 9.07003 11.3377 8.76516C12.2779 7.71051 12.9515 6.08437 12.9515 6.08437C13.0392 5.89369 13.1916 5.71538 13.5228 5.71538H14.8318C15.2243 5.71538 15.312 5.91732 15.2243 6.19856C15.0601 6.96016 13.4581 9.2219 13.4581 9.2219C13.3204 9.45027 13.2675 9.54983 13.4581 9.80463C13.5987 9.99531 14.0558 10.3907 14.36 10.7451C14.9195 11.3807 15.3497 11.9139 15.4644 12.2829C15.5931 12.6491 15.4031 12.8398 15.0337 12.8398L15.0353 12.8403Z" fill="black"/>
</svg>
