<svg width="19" height="18" viewBox="0 0 19 18" fill="none" xmlns="http://www.w3.org/2000/svg">
<path d="M8.01436 6.83435L11.8394 9.00801L8.01436 11.1817V6.83435ZM14.509 0C16.7181 0 18.509 1.79086 18.509 4V14C18.509 16.2091 16.7181 18 14.509 18H4.50904C2.2999 18 0.509037 16.2091 0.509041 14L0.50906 3.99999C0.509065 1.79085 2.29992 0 4.50906 0H14.509ZM16.8215 9.01203C16.8215 9.01203 16.8215 6.61739 16.5162 5.46828C16.3474 4.83346 15.8532 4.33524 15.2224 4.16649C14.0853 3.85712 9.50901 3.85712 9.50901 3.85712C9.50901 3.85712 4.93267 3.85712 3.79561 4.16649C3.16481 4.33524 2.67061 4.83346 2.50186 5.46828C2.19651 6.61337 2.19651 9.01203 2.19651 9.01203C2.19651 9.01203 2.19651 11.4067 2.50186 12.5558C2.67061 13.1906 3.16481 13.6687 3.79561 13.8375C4.93267 14.1428 9.50901 14.1428 9.50901 14.1428C9.50901 14.1428 14.0853 14.1428 15.2224 13.8335C15.8532 13.6647 16.3474 13.1866 16.5162 12.5518C16.8215 11.4067 16.8215 9.01203 16.8215 9.01203Z" fill="black"/>
</svg>
